<svg width="320" height="80" viewBox="0 0 320 80" fill="none" xmlns="http://www.w3.org/2000/svg">
  <defs>
    <linearGradient id="g" x1="0" y1="0" x2="1" y2="1">
      <stop offset="0%" stop-color="#5CE1E6"/>
      <stop offset="100%" stop-color="#6A5BFF"/>
    </linearGradient>
    <style>
      .mark { fill:url(#g); }
      .word { fill:#0D1627; font-family:'Poppins', 'Segoe UI', sans-serif; font-weight:700; font-size:30px; letter-spacing:0.5px; }
      .bank { fill:#5B6CFF; font-family:'Poppins', 'Segoe UI', sans-serif; font-weight:600; font-size:18px; letter-spacing:4px; }
    </style>
  </defs>
  <rect x="20" y="14" width="44" height="44" rx="12" fill="#0D1627" opacity="0.08"/>
  <path class="mark" d="M42 52c-8.3 0-15-6.7-15-15 0-8.3 6.7-15 15-15s15 6.7 15 15c0 2.9-.8 5.6-2.3 7.9l-4.4-2.8c.9-1.4 1.4-3 1.4-4.7 0-4.9-4-8.9-8.9-8.9s-8.9 4-8.9 8.9S37.1 47 42 47c1.1 0 2.2-.2 3.1-.6l3.4 4.1C46.6 51.4 44.3 52 42 52Z"/>
  <circle cx="42" cy="37" r="3" fill="#0D1627" opacity="0.9"/>
  <text class="word" x="78" y="40" dominant-baseline="middle">Swisser</text>
  <text class="bank" x="80" y="60" dominant-baseline="middle">BANK</text>
</svg>
